{
  "accessors": [
    {
      "bufferView": 2,
      "componentType": 5126,
      "count": 28290,
      "max": [
        0.2339547574520111,
        0.27565354108810425,
        0.23919431865215302
      ],
      "min": [
        -0.23895388841629028,
        -0.2783048748970032,
        -0.23351143300533295
      ],
      "type": "VEC3"
    },
    {
      "bufferView": 2,
      "byteOffset": 339480,
      "componentType": 5126,
      "count": 28290,
      "max": [
        0.9999200105667114,
        0.9999978542327881,
        0.9995874762535095
      ],
      "min": [
        -0.9990994334220886,
        -0.9999996423721313,
        -0.9996073842048645
      ],
      "type": "VEC3"
    },
    {
      "bufferView": 1,
      "componentType": 5126,
      "count": 28290,
      "max": [
        0.9987910985946655,
        0.9986783266067505
      ],
      "min": [
        0.0012088492512702942,
        0.0076735615730285645
      ],
      "type": "VEC2"
    },
    {
      "bufferView": 1,
      "byteOffset": 226320,
      "componentType": 5126,
      "count": 28290,
      "max": [
        0.9987910985946655,
        0.9986783266067505
      ],
      "min": [
        0.0012088492512702942,
        0.0076735615730285645
      ],
      "type": "VEC2"
    },
    {
      "bufferView": 1,
      "byteOffset": 452640,
      "componentType": 5126,
      "count": 28290,
      "max": [
        0.9987910985946655,
        0.9986783266067505
      ],
      "min": [
        0.0012088492512702942,
        0.0076735615730285645
      ],
      "type": "VEC2"
    },
    {
      "bufferView": 0,
      "componentType": 5125,
      "count": 149382,
      "type": "SCALAR"
    }
  ],
  "asset": {
    "extras": {
      "author": "omw100 (https://sketchfab.com/omw100)",
      "license": "SKETCHFAB Standard (https://sketchfab.com/licenses)",
      "source": "https://sketchfab.com/3d-models/vase-7eeb355fef2841d9aa83ba49b9e7e21a",
      "title": "vase"
    },
    "generator": "Sketchfab-16.28.0",
    "version": "2.0"
  },
  "bufferViews": [
    {
      "buffer": 0,
      "byteLength": 597528,
      "name": "floatBufferViews",
      "target": 34963
    },
    {
      "buffer": 0,
      "byteLength": 678960,
      "byteOffset": 597528,
      "byteStride": 8,
      "name": "floatBufferViews",
      "target": 34962
    },
    {
      "buffer": 0,
      "byteLength": 678960,
      "byteOffset": 1276488,
      "byteStride": 12,
      "name": "floatBufferViews",
      "target": 34962
    }
  ],
  "buffers": [
    {
      "byteLength": 1955448,
      "uri": "scene.bin"
    }
  ],
  "images": [
    {
      "uri": "textures/Material_0_baseColor.jpeg"
    },
    {
      "uri": "textures/Material_0_metallicRoughness.png"
    }
  ],
  "materials": [
    {
      "doubleSided": true,
      "name": "Material_0",
      "pbrMetallicRoughness": {
        "baseColorTexture": {
          "index": 0
        },
        "metallicRoughnessTexture": {
          "index": 1
        }
      }
    }
  ],
  "meshes": [
    {
      "name": "Object_0",
      "primitives": [
        {
          "attributes": {
            "NORMAL": 1,
            "POSITION": 0,
            "TEXCOORD_0": 2,
            "TEXCOORD_1": 3,
            "TEXCOORD_2": 4
          },
          "indices": 5,
          "material": 0,
          "mode": 4
        }
      ]
    }
  ],
  "nodes": [
    {
      "children": [
        1
      ],
      "matrix": [
        1.0,
        0.0,
        0.0,
        0.0,
        0.0,
        2.220446049250313e-16,
        -1.0,
        0.0,
        0.0,
        1.0,
        2.220446049250313e-16,
        0.0,
        0.0,
        0.0,
        0.0,
        1.0
      ],
      "name": "Sketchfab_model"
    },
    {
      "children": [
        2
      ],
      "name": "root"
    },
    {
      "children": [
        3
      ],
      "matrix": [
        1.0,
        0.0,
        0.0,
        0.0,
        0.0,
        2.220446049250313e-16,
        1.0,
        0.0,
        0.0,
        -1.0,
        2.220446049250313e-16,
        0.0,
        0.0,
        0.0,
        0.0,
        1.0
      ],
      "name": "GLTF_SceneRootNode"
    },
    {
      "children": [
        4
      ],
      "matrix": [
        1.805189609527588,
        0.0,
        0.0,
        0.0,
        0.0,
        1.805189609527588,
        0.0,
        0.0,
        0.0,
        0.0,
        1.805189609527588,
        0.0,
        0.0,
        0.0,
        0.0,
        1.0
      ],
      "name": "high_poly_0"
    },
    {
      "mesh": 0,
      "name": "Object_4"
    }
  ],
  "samplers": [
    {
      "magFilter": 9729,
      "minFilter": 9987,
      "wrapS": 10497,
      "wrapT": 10497
    }
  ],
  "scene": 0,
  "scenes": [
    {
      "name": "Sketchfab_Scene",
      "nodes": [
        0
      ]
    }
  ],
  "textures": [
    {
      "sampler": 0,
      "source": 0
    },
    {
      "sampler": 0,
      "source": 1
    }
  ]
}
